# xmcd CD database file
#
# Track frame offsets:
#	150
#	16402
#	28070
#	44082
#	56164
#	69917
#	84060
#	97297
#	111605
#	125370
#	138802
#	150800
#	164222
#	179022
#
# Disc length: 2589 seconds
#
# Revision: 0
# Processed by: cddbd v1.5PL3 Copyright (c) Steve Scherf et al.
# Submitted via: CDex 1.50beta8
#
DISCID=c30a1b0e
DTITLE=グレンミラー他 - ＪＡＺＺ　ＢＩＧ　ＢＡＮＤ
DYEAR=1900
DGENRE=Jazz
TTITLE0=インザムード
TTITLE1=レッツダンス
TTITLE2=スターダスト
TTITLE3=Ｃ・ジャム・ブルース
TTITLE4=コントラスツ
TTITLE5=ミリオンダラースマイル
TTITLE6=アイブ・ガッツ・ザ・アンダー・ザ・スキン
TTITLE7=ジャンピンアット・ザ・ウッドサイド
TTITLE8=スカイライナー
TTITLE9=マボガニー・ホール・ストンプ
TTITLE10=フォー・ダンサーズ・オンリー
TTITLE11=ダウン・サウス・キャンプ・ミーテイング
TTITLE12=表通りで
TTITLE13=オール・オブ・ミー
EXTD=
EXTT0=
EXTT1=
EXTT2=
EXTT3=
EXTT4=
EXTT5=
EXTT6=
EXTT7=
EXTT8=
EXTT9=
EXTT10=
EXTT11=
EXTT12=
EXTT13=
PLAYORDER=
